<?xml version="1.0" encoding="UTF-8"?>
<svg id="vlpa" width="444.9" height="126.9" enable-background="new 0 0 500 126.875" version="1.0" viewBox="0 0 444.9 126.9" xml:space="preserve" xmlns="http://www.w3.org/2000/svg">
<title>Steinberg Cubase logo</title>
<path d="m184.3 47.84h-14.26v-16.84-2.781c0-1.236-0.265-2.471-0.79-3.708s-1.419-2.342-2.68-3.321c-1.262-0.978-3.1-1.469-5.516-1.469-1.577 0-2.812 0.182-3.705 0.54-0.894 0.363-1.656 0.799-2.287 1.315-1.787 1.544-2.787 3.398-2.995 5.561-0.211 2.163-0.315 4.276-0.315 6.335v60.26 1.854c0 0.618 0.051 1.236 0.158 1.854 0 0.723 0.078 1.6 0.235 2.627 0.157 1.031 0.524 2.008 1.104 2.938 0.578 0.928 1.446 1.699 2.603 2.315 1.155 0.619 2.785 0.928 4.886 0.928 0.523 0 1.313-0.05 2.363-0.155 1.051-0.102 2.156-0.564 3.313-1.389 1.888-1.338 2.966-3.039 3.23-5.1 0.261-2.059 0.395-4.117 0.395-6.182v-21.17h14.26v20.4c-0.105 2.988-0.361 5.82-0.77 8.496-0.412 2.68-1.49 5.356-3.232 8.034-0.617 0.928-1.465 1.958-2.543 3.09-1.077 1.134-2.411 2.19-4.002 3.167-1.592 0.979-3.462 1.777-5.618 2.394-2.155 0.62-4.671 0.93-7.543 0.93-2.773 0-5.21-0.286-7.315-0.852-2.104-0.564-3.925-1.284-5.465-2.162-1.54-0.875-2.848-1.855-3.925-2.936-1.078-1.081-1.924-2.085-2.541-3.013-1.952-2.782-3.08-5.794-3.387-9.039-0.308-3.245-0.461-6.462-0.461-9.655v-52.68-3.708c0-1.236 0.103-2.473 0.308-3.708 0-1.028 0.128-2.573 0.385-4.635 0.257-2.059 0.898-4.222 1.925-6.488 1.027-2.265 2.513-4.428 4.465-6.489 1.95-2.06 4.668-3.655 8.159-4.79 1.54-0.514 3.002-0.874 4.387-1.082 1.385-0.205 2.952-0.309 4.695-0.309 4.002 0 7.158 0.517 9.468 1.545 2.31 1.03 4.183 2.113 5.621 3.244 1.128 0.826 2.13 1.831 3.002 3.013 0.872 1.185 1.564 2.448 2.077 3.785 1.129 2.472 1.798 4.943 2.003 7.416 0.202 2.472 0.307 5.048 0.307 7.726v13.9zm25.57-39.55v84.36 1.853c0 0.516 0.051 1.081 0.152 1.699 0 0.518 0.024 1.367 0.078 2.55 0.051 1.185 0.332 2.395 0.845 3.63 0.511 1.236 1.329 2.346 2.458 3.323 1.126 0.979 2.817 1.468 5.068 1.468 0.511 0 1.305-0.078 2.38-0.233 1.076-0.153 2.125-0.642 3.151-1.467 1.535-1.338 2.431-3.064 2.688-5.176 0.256-2.109 0.435-4.969 0.537-8.574v-83.43h14.26v82.66 1.702c0 0.926-0.053 2.007-0.154 3.243-0.104 1.237-0.26 2.577-0.466 4.017-0.208 1.443-0.465 2.781-0.775 4.02-1.034 3.604-2.556 6.41-4.571 8.418-2.015 2.009-4.16 3.53-6.432 4.559-2.273 1.028-4.443 1.646-6.508 1.854-2.068 0.205-3.618 0.308-4.649 0.308-0.931 0-2.326-0.103-4.184-0.308-1.86-0.208-3.798-0.723-5.812-1.546-2.016-0.824-3.979-2.111-5.89-3.863-1.913-1.749-3.436-4.118-4.572-7.106-0.62-1.544-1.06-3.243-1.318-5.099-0.259-1.854-0.44-4.427-0.542-7.727v-85.13zm68.73 0c2.289 0 4.577 0.13 6.868 0.387 2.292 0.258 4.32 1.211 6.087 2.857 1.976 1.854 3.121 4.199 3.433 7.029 0.313 2.835 0.521 6.671 0.628 11.51 0 0.927 0.024 1.854 0.077 2.781 0.051 0.926 0.079 1.854 0.079 2.781 0 1.752-0.028 3.452-0.079 5.099-0.053 1.648-0.13 3.347-0.231 5.098 0 0.309-0.054 1.417-0.155 3.321-0.105 1.908-0.519 3.63-1.24 5.177-0.621 1.134-1.473 2.085-2.557 2.857-1.084 0.773-2.197 1.313-3.333 1.623-0.619 0.207-1.292 0.309-2.014 0.309-0.724 0-1.189 0.053-1.396 0.155v0.772c1.962 0.208 3.744 0.594 5.347 1.159 1.602 0.567 2.919 1.727 3.953 3.478 0.825 1.543 1.29 3.45 1.395 5.716 0.102 2.267 0.155 5.304 0.155 9.114 0.102 1.445 0.156 2.885 0.156 4.327v4.171 6.644c0 2.163-0.105 4.38-0.313 6.644 0 0.309-0.026 0.954-0.077 1.931-0.053 0.982-0.235 2.086-0.548 3.322-0.312 1.235-0.779 2.526-1.404 3.862-0.625 1.34-1.51 2.524-2.654 3.557-2.186 1.751-4.71 2.754-7.572 3.012-2.862 0.257-5.594 0.385-8.194 0.385h-22.17v-109.1zm-11.5 45.73h5.579c2.271-0.101 4.158-0.386 5.657-0.849 1.496-0.464 2.402-2.033 2.711-4.712 0.311-2.163 0.465-5.818 0.465-10.97 0-3.398-0.155-6.797-0.465-10.2-0.104-2.678-0.619-4.377-1.549-5.099-0.518-0.515-1.189-0.796-2.014-0.85-0.829-0.051-1.914-0.077-3.255-0.077h-7.129zm0 49.91h7.282c0.809 0 1.569-0.025 2.275-0.078 0.708-0.052 1.366-0.181 1.974-0.389 0.606-0.203 1.112-0.539 1.516-1.003 0.405-0.464 0.708-1.211 0.91-2.241 0-0.409 0.024-1.158 0.076-2.239 0.05-1.081 0.101-2.317 0.152-3.708 0.048-1.392 0.099-2.909 0.15-4.559 0.051-1.647 0.077-3.244 0.077-4.789 0-1.855-0.026-3.683-0.077-5.485-0.051-1.801-0.126-3.63-0.226-5.484-0.102-1.028-0.23-2.214-0.38-3.553-0.152-1.337-0.631-2.421-1.441-3.245-0.607-0.514-1.315-0.85-2.123-1.003-0.81-0.156-1.57-0.233-2.276-0.233h-7.889zm85.31 13.44h-14.1l-2.791-20.08h-16.43l-2.479 20.08h-14.1l15.5-109.1h17.51zm-31.77-33.06h13.02l-5.423-38.28c-0.209-0.936-0.337-1.873-0.388-2.81-0.054-0.937-0.132-1.875-0.233-2.815-0.104-2.081-0.155-4.06-0.155-5.936 0-1.977-0.053-3.957-0.155-5.936h-1.24c-0.104 3.022-0.208 5.99-0.31 8.906-0.104 2.917-0.259 5.886-0.465 8.906zm79.18-40.17h-13.17v-19.31c0-0.309-0.026-0.874-0.078-1.699-0.052-0.824-0.232-1.646-0.542-2.472-0.31-0.823-0.853-1.569-1.627-2.24-0.775-0.67-1.937-1.005-3.487-1.005-1.758 0-3.099 0.335-4.029 1.005s-1.627 1.545-2.092 2.626c-0.465 1.082-0.751 2.294-0.853 3.63-0.104 1.34-0.155 2.627-0.155 3.863 0 2.267 0.155 4.326 0.464 6.18 0.311 1.854 0.775 3.631 1.396 5.331 0.619 1.699 1.368 3.375 2.247 5.022 0.876 1.648 1.938 3.398 3.177 5.252 1.031 1.648 2.065 3.245 3.099 4.789 1.032 1.545 2.117 3.144 3.254 4.79 1.55 2.163 3.151 4.533 4.805 7.106 1.858 2.988 3.355 5.744 4.492 8.265 1.136 2.526 2.015 4.867 2.635 7.031 0.619 2.162 1.007 4.172 1.162 6.027 0.155 1.853 0.232 3.552 0.232 5.096 0 0.619-0.053 1.959-0.154 4.018-0.104 2.063-0.543 4.354-1.318 6.877-0.775 2.525-1.964 5.047-3.563 7.569-1.603 2.525-3.951 4.456-7.051 5.794-0.93 0.412-2.17 0.797-3.719 1.158-1.55 0.359-3.515 0.543-5.889 0.543-4.444 0-7.931-0.725-10.46-2.164-2.533-1.442-4.366-2.884-5.502-4.326-2.273-2.574-3.618-5.305-4.029-8.188-0.414-2.883-0.673-5.924-0.774-9.117v-18.08h13.33v19.93c0 2.682 0.232 4.663 0.697 5.949 0.465 1.289 1.264 2.344 2.402 3.167 0.309 0.208 0.826 0.489 1.549 0.851 0.722 0.361 1.651 0.54 2.791 0.54 1.755 0 3.123-0.438 4.106-1.314 0.98-0.872 1.677-1.954 2.092-3.243 0.412-1.286 0.644-2.678 0.697-4.172 0.05-1.492 0.078-2.858 0.078-4.093 0-3.916-0.387-7.21-1.162-9.89-0.775-2.678-2.145-5.717-4.107-9.115-2.068-3.604-4.262-7.029-6.586-10.27-2.325-3.245-4.521-6.618-6.586-10.12-0.62-0.926-1.395-2.187-2.325-3.786-0.931-1.595-1.835-3.476-2.712-5.639-0.879-2.163-1.654-4.608-2.324-7.339-0.673-2.728-1.008-5.69-1.008-8.884 0-5.972 1.059-10.63 3.177-13.98 2.117-3.346 4.313-5.691 6.587-7.031 1.136-0.719 2.712-1.39 4.727-2.007 2.015-0.618 4.572-0.928 7.671-0.928 0.722 0 1.884 0.053 3.488 0.155 1.6 0.104 3.278 0.463 5.036 1.081 1.756 0.618 3.461 1.649 5.114 3.091 1.65 1.443 2.891 3.502 3.719 6.18 0.31 1.031 0.542 2.112 0.697 3.245 0.155 1.134 0.284 2.781 0.388 4.943v19.31zm45.08-35.84v13.6h-21.54v31.98h19.22v13.6h-19.06v36.15h21.39v13.75h-36.11v-109.1z" style="fill:#4b4b4b"/>
<path d="m87.23 103.1-23.79 23.8-63.44-63.44 63.44-63.44 20.63 20.63c-21.16 1.791-37.78 19.52-37.78 41.15 0 22.7 18.3 41.11 40.95 41.3zm0.118-58.52c-9.64 0-17.46 7.817-17.46 17.46 0 9.64 7.816 17.46 17.46 17.46s17.46-7.816 17.46-17.46c0-9.639-7.816-17.46-17.46-17.46z" style="fill:#af142d"/>
</svg>
